<?xml version="1.0" encoding="utf-8"?>
<!-- Generator: Adobe Illustrator 23.0.4, SVG Export Plug-In . SVG Version: 6.00 Build 0)  -->
<svg version="1.1" id="Layer_1" xmlns="http://www.w3.org/2000/svg" xmlns:xlink="http://www.w3.org/1999/xlink" x="0px" y="0px"
	 viewBox="0 0 1080 1080" style="enable-background:new 0 0 1080 1080;" xml:space="preserve">
<style type="text/css">
	.st0{fill:#FE8F00;}
	.st1{fill:#FFDA00;}
	.st2{fill:#FC6600;}
</style>
<g>
	<path class="st0" d="M41,355.49c0,0,378.97,157.57,394.08,227.45c10.61,49.04-136.73,281.94-136.73,281.94
		s204.22-146.26,257.8-135.45c36.79,7.42,66.73,225.16,66.73,225.16s32.42-242.8,105.66-188.41s217.19,114.38,217.19,114.38
		S712.55,617.67,837.19,631.9c0,0-4.46-106.27,204.34-115.96c0,0-264.31-24.97-298.15-63.35c-24.51-27.81-78.4-267.05-74.88-280.19
		c0,0-33.63,166.71-79.58,180.7c-87.28,26.58-190.17-111.38-190.17-111.38s79.02,124.68,34.47,154.27
		C370.53,437.64,41,355.49,41,355.49z"/>
	<path class="st1" d="M378.08,85.49c0,0,121.77,317.6,248.93,236.02c47.74-30.63,119.56-139.05,119.56-139.05
		s-42.91,175.12,3.64,175.12c55.18,0,163.15-54.88,163.15-54.88S676.94,501.13,769.84,481.13c92.9-20,236.61-93.09,236.61-93.09
		s-177.7,110.93-138.98,149.64c31.84,31.84,185.53,30.14,185.53,30.14s-232.97,16.8-265.94,85.33
		c-18.8,39.08,6.09,241.62,6.09,241.62s-76.93-160.17-166.15-113.62c-63.22,32.99-155.83,227.5-155.83,227.5
		s50.35-203.17-6.22-230.13c-32.97-15.71-255.54,94.04-255.54,94.04S440.14,717.74,374.2,686.71
		c-65.94-31.03-214.88,3.88-214.88,3.88s319.61-77.58,253.67-100.85c-65.94-23.27-205.58-124.12-205.58-124.12
		s156.47,70.66,180.13,9.11c19.39-50.45-59.88-106.08-59.88-106.08s112.49,81.46,77.58-27.15c0,0,38.79,58.49,38.79-17.3
		C444.02,248.4,378.08,85.49,378.08,85.49z"/>
	<path class="st1" d="M354.56,340.94c-44.18-66.7-154.66-133.4-154.66-133.4C274.55,324.03,354.56,340.94,354.56,340.94z"/>
	<path class="st2" d="M734.51,940.15c-3.42-45.89-40.11-110.42-40.11-110.42C699.1,909.17,734.51,940.15,734.51,940.15z"/>
	<path class="st2" d="M1033.51,801.14c-34.51-30.44-105.85-50.96-105.85-50.96C986.54,803.72,1033.51,801.14,1033.51,801.14z"/>
	<path class="st1" d="M781.49,285.66c26.74-37.45,39.85-110.51,39.85-110.51C774.12,239.21,781.49,285.66,781.49,285.66z"/>
	<path class="st1" d="M54.2,852.85c45.19-8.7,105.04-52.6,105.04-52.6C80.87,814.1,54.2,852.85,54.2,852.85z"/>
	<path class="st0" d="M348.62,554.73c0,0-102.83,101.25-44.2,178.48c69.93,92.13,141.04,31.72,141.04,31.72
		s-6.57,118.26,93.22,135.01C668.74,921.78,701.6,795.22,701.6,795.22s70.55,57.45,131.88-3.88c45.75-45.75,0-93.09,0-93.09
		s186.18,11.64,139.64-143.52c-46.55-155.15-159.03-93.09-159.03-93.09s41.94-108.7-73.7-135.76
		c-120.86-28.28-148.28,73.7-148.28,73.7s-50.58-100.8-163.45-58.41C336.78,375.67,298.2,473.27,348.62,554.73z"/>
	<path class="st2" d="M354.56,605.15c0,0-81.04,95.47,0,140.93c50.71,28.44,99.84-9.5,99.84-9.5s16.19,124.35,103.44,131.04
		c91.72,7.03,120.24-109.9,120.24-109.9s78.4,70.09,127.8,20.69c30.49-30.49-7.56-86.63-7.56-86.63s20.26,72.51-36.61,86.63
		c-31.51,7.82-91.8-53.01-91.8-53.01s-29.68,114-95.46,114c-79.59,0-91.31-127.51-91.31-127.51s-77.18,44.82-108.61,18.1
		C308.3,673.68,354.56,605.15,354.56,605.15z"/>
	<path class="st1" d="M458.28,371.13c0,0,97.96-41.33,131.88,85.33c0,0,65.94-108.61,143.52-95.68s36.16,120.34,36.16,120.34
		s128.04-36.3,153.9,33.52c25.86,69.82-34.91,111.19-34.91,111.19s46.37-75.52,10.34-107.31c-52.91-46.7-144.81-5.17-144.81-5.17
		s25.86-125.42-20.69-112.49c-46.55,12.93-152.57,85.98-152.57,85.98S551.58,358.73,458.28,371.13z"/>
	<path class="st1" d="M541.26,489.2c0,0,59.24-59.24,85.1,19.63C626.37,508.83,592.75,476.51,541.26,489.2z"/>
	<path class="st1" d="M719.46,499.78c0,0,67.74-22.64,69.99,43.69C789.44,543.47,760.19,508.83,719.46,499.78z"/>
	<path class="st1" d="M606.16,572.83c0,0,42.83-73.05,97.78-18.1c0,0,56.17-56.56,78.87,34.91c0,0-37.17-55.38-81.71-10.84
		C701.1,578.8,662.24,536.63,606.16,572.83z"/>
</g>
</svg>
